<?xml version="1.0" encoding="utf-8"?>
<!-- Generator: Adobe Illustrator 27.1.0, SVG Export Plug-In . SVG Version: 6.00 Build 0)  -->
<svg version="1.1" id="Logo" xmlns="http://www.w3.org/2000/svg" xmlns:xlink="http://www.w3.org/1999/xlink" x="0px" y="0px"
	 width="421.883px" height="158.74px" viewBox="0 0 421.883 158.74" enable-background="new 0 0 421.883 158.74"
	 xml:space="preserve">
<path fill="#D9D9D6" d="M206.269,60.428l-11.665,25.21h7.462l1.277-2.892h8.741l1.277,2.892h7.461l-11.664-25.21H206.269z
	 M205.53,77.2l2.015-5.445h0.337l2.018,5.445H205.53z M129.904,22.677H22.677l17.858,37.767h7.602l6.385,13.746l6.386-13.746h7.663
	L57.077,85.651h-4.624l23.837,50.412l24.256-51.3c-1.959,0.941-4.166,1.438-6.483,1.438c-7.121,0-13.504-5.678-13.504-13.169
	c0-7.49,6.383-13.168,13.504-13.168c4.804,0,9.137,2.116,11.758,5.946l-5.711,3.494c-1.277-1.747-3.09-2.923-5.711-2.923
	c-3.494,0-6.517,3.191-6.517,6.65c0,3.461,3.024,6.653,6.517,6.653c2.62,0,4.433-1.176,5.711-2.924l3.274,2.003l5.744-12.148h4.923
	V85.63h6.854V66.616h6.886v-6.181h-15.74L129.904,22.677z M77.368,85.63h-6.853V60.435h6.853V85.63z M142.907,59.864
	c-7.492,0-13.974,5.678-13.974,13.168c0,7.492,6.482,13.169,13.974,13.169c7.491,0,13.974-5.677,13.974-13.169
	C156.881,65.541,150.398,59.864,142.907,59.864 M142.907,79.684c-3.662,0-6.651-2.99-6.651-6.652c0-3.662,2.99-6.651,6.651-6.651
	c3.662,0,6.652,2.99,6.652,6.651C149.559,76.695,146.568,79.684,142.907,79.684 M181.034,69.606c0-5.274-4.199-9.171-9.507-9.171
	h-11.455v25.195h6.853v-6.853h3.225l3.124,6.853h7.693l-4.267-8.464C179.12,75.485,181.034,72.999,181.034,69.606 M171.293,72.596
	h-4.368v-5.979h4.368c1.546,0,2.553,1.746,2.553,2.99C173.846,70.849,172.838,72.596,171.293,72.596 M184.392,60.435h6.852V85.63
	h-6.852V60.435z M113.338,104.778l2.396-0.956c0.383,1.13,1.302,1.633,2.536,1.633c1.356,0,2.066-0.642,2.066-1.476
	c0-0.66-0.311-1.059-1.354-1.268l-2.292-0.468c-1.391-0.277-3.056-1.06-3.056-3.335c0-2.084,1.702-3.542,4.428-3.542
	c1.998,0,3.595,0.919,4.308,2.466l-2.258,0.746c-0.382-0.729-1.181-1.181-2.101-1.181c-1.181,0-1.893,0.66-1.893,1.443
	c0,0.591,0.26,0.989,1.164,1.181l2.327,0.503c1.892,0.416,3.056,1.528,3.056,3.334c0,2.258-1.859,3.665-4.621,3.665
	C115.873,107.523,113.946,106.619,113.338,104.778 M130.705,106.88c-0.903,0.487-1.528,0.643-2.257,0.643
	c-2.05,0-3.405-1.077-3.405-3.457v-3.595h-1.858v-1.874h1.858v-2.624h2.292v2.624h2.831v1.874h-2.831v3.422
	c0,1.041,0.504,1.493,1.268,1.493c0.399,0,0.99-0.174,1.441-0.417L130.705,106.88z M140.307,98.596v8.666h-2.291v-0.677
	c-0.729,0.591-1.685,0.938-2.865,0.938c-2.206,0-4.256-1.859-4.256-4.586c0-2.727,2.05-4.602,4.256-4.602
	c1.18,0,2.136,0.347,2.865,0.955v-0.694H140.307z M138.016,102.937c0-1.598-1.233-2.606-2.467-2.606
	c-1.39,0-2.431,1.008-2.431,2.606c0,1.598,1.041,2.588,2.431,2.588C136.783,105.525,138.016,104.535,138.016,102.937
	 M148.697,106.88c-0.903,0.487-1.528,0.643-2.257,0.643c-2.049,0-3.405-1.077-3.405-3.457v-3.595h-1.858v-1.874h1.858v-2.624h2.293
	v2.624h2.831v1.874h-2.831v3.422c0,1.041,0.503,1.493,1.267,1.493c0.4,0,0.99-0.174,1.441-0.417L148.697,106.88z M157.762,103.545
	h-6.6c0.226,1.251,1.129,2.014,2.258,2.014c0.694,0,1.457-0.121,2.066-0.867l1.823,0.903c-0.833,1.302-2.189,1.928-3.889,1.928
	c-2.536,0-4.533-1.859-4.533-4.586c0-2.727,1.998-4.602,4.48-4.602c2.311,0,4.307,1.789,4.395,4.429V103.545z M151.232,101.93h4.185
	c-0.312-1.112-1.129-1.598-2.05-1.598C152.499,100.332,151.509,100.853,151.232,101.93 M125.182,117.648
	c0,3.456-2.466,6.044-5.905,6.044c-3.473,0-6.183-2.658-6.183-6.079c0-3.405,2.762-6.079,6.183-6.079
	c1.824,0,3.456,0.713,4.532,1.998l-1.945,1.337c-0.659-0.764-1.58-1.112-2.587-1.112c-2.085,0-3.787,1.651-3.787,3.856
	c0,2.205,1.685,3.873,3.856,3.873c1.771,0,3.09-1.042,3.49-2.692h-3.039v-2.155h5.331
	C125.165,117.04,125.182,117.371,125.182,117.648 M135.447,119.107c0,2.727-2.137,4.551-4.672,4.551
	c-2.588,0-4.724-1.824-4.724-4.551c0-2.727,2.136-4.551,4.724-4.551C133.31,114.556,135.447,116.38,135.447,119.107
	 M133.223,119.107c0-1.616-1.251-2.587-2.449-2.587c-1.251,0-2.502,0.972-2.502,2.587c0,1.616,1.251,2.588,2.502,2.588
	C131.972,121.695,133.223,120.723,133.223,119.107 M145.45,114.748l-3.612,8.684h-2.431l-3.613-8.684h2.467l2.362,5.887l2.362-5.887
	H145.45z M154.672,119.715h-6.599c0.225,1.251,1.129,2.013,2.257,2.013c0.694,0,1.458-0.121,2.065-0.867l1.824,0.903
	c-0.833,1.302-2.188,1.929-3.889,1.929c-2.536,0-4.533-1.859-4.533-4.586c0-2.727,1.998-4.602,4.481-4.602
	c2.31,0,4.307,1.789,4.394,4.429V119.715z M148.142,118.1h4.186c-0.313-1.111-1.13-1.598-2.05-1.598
	C149.409,116.502,148.42,117.023,148.142,118.1 M162.071,114.713l-0.121,2.206h-0.504c-2.119,0-3.09,1.301-3.09,3.716v2.797h-2.293
	v-8.666h2.293v1.581c0.694-1.008,1.702-1.703,3.108-1.703C161.689,114.643,161.862,114.643,162.071,114.713 M171.658,118.152v5.28
	h-2.292v-4.793c0-1.216-0.694-2.032-1.754-2.032c-1.302,0-2.154,0.87-2.154,2.988v3.838h-2.292v-8.666h2.292v0.782
	c0.678-0.678,1.581-1.041,2.727-1.041C170.269,114.506,171.658,115.998,171.658,118.152 M187.775,118.013v5.419H185.5v-4.949
	c0-1.164-0.747-1.876-1.703-1.876c-1.216,0-2.014,0.834-2.014,2.658v4.168h-2.293v-4.949c0-1.164-0.746-1.876-1.702-1.876
	c-1.215,0-1.979,0.834-1.979,2.658v4.168h-2.293v-8.666h2.293v0.713c0.607-0.608,1.458-0.973,2.587-0.973
	c1.164,0,2.224,0.503,2.848,1.424c0.713-0.886,1.773-1.424,3.16-1.424C186.211,114.505,187.775,115.894,187.775,118.013
	 M197.83,119.715h-6.6c0.226,1.251,1.129,2.013,2.257,2.013c0.694,0,1.458-0.121,2.066-0.867l1.824,0.903
	c-0.834,1.302-2.189,1.929-3.89,1.929c-2.536,0-4.533-1.859-4.533-4.586c0-2.727,1.998-4.602,4.481-4.602
	c2.311,0,4.307,1.789,4.395,4.429V119.715z M191.3,118.1h4.185c-0.312-1.111-1.129-1.598-2.05-1.598
	C192.568,116.502,191.578,117.023,191.3,118.1 M207.712,118.152v5.28h-2.292v-4.793c0-1.216-0.694-2.032-1.754-2.032
	c-1.302,0-2.154,0.87-2.154,2.988v3.838h-2.293v-8.666h2.293v0.782c0.677-0.678,1.58-1.041,2.727-1.041
	C206.323,114.506,207.712,115.998,207.712,118.152 M215.876,123.05c-0.904,0.487-1.529,0.643-2.258,0.643
	c-2.049,0-3.405-1.078-3.405-3.457v-3.596h-1.858v-1.874h1.858v-2.623h2.293v2.623h2.831v1.874h-2.831v3.422
	c0,1.042,0.503,1.493,1.268,1.493c0.399,0,0.989-0.173,1.44-0.416L215.876,123.05z M247.278,60.404h0.529v63.029h-0.529V60.404z
	 M283.954,60.382v9.295c0,3.273-2.16,5.607-5.411,5.607c-2.945,0-4.932-1.941-5.324-4.713l1.637-0.371
	c0.262,2.073,1.593,3.514,3.688,3.514c2.204,0,3.688-1.681,3.688-4.037v-9.295H283.954z M297.461,69.612
	c0,3.295-2.531,5.651-5.695,5.651c-3.208,0-5.717-2.356-5.717-5.651s2.509-5.607,5.717-5.607
	C294.93,64.004,297.461,66.317,297.461,69.612z M295.824,69.612c0-2.466-1.854-4.146-4.059-4.146c-2.226,0-4.103,1.68-4.103,4.146
	c0,2.487,1.877,4.189,4.103,4.189C293.97,73.801,295.824,72.099,295.824,69.612z M310.967,69.633c0,3.404-2.509,5.651-5.367,5.651
	c-1.789,0-3.316-0.72-4.277-1.985v1.702h-1.658v-15.71h1.658v6.677c0.961-1.266,2.488-1.986,4.277-1.986
	C308.458,63.982,310.967,66.23,310.967,69.633z M309.353,69.633c0-2.574-1.789-4.189-4.015-4.189c-2.029,0-4.016,1.615-4.016,4.189
	c0,2.554,1.986,4.168,4.016,4.168C307.564,73.801,309.353,72.187,309.353,69.633z M317.622,73.911c1.549,0,2.574-0.721,2.574-1.833
	c0-0.895-0.676-1.31-1.767-1.549l-2.357-0.546c-1.789-0.393-2.793-1.266-2.793-2.749c0-1.942,1.615-3.252,4.081-3.252
	c2.138,0,3.6,0.961,4.189,2.379L320,66.84c-0.371-0.916-1.331-1.505-2.684-1.505c-1.527,0-2.379,0.741-2.379,1.768
	c0,0.851,0.59,1.243,1.637,1.483l2.487,0.567c1.571,0.371,2.771,1.178,2.771,2.814c0,2.117-1.768,3.316-4.342,3.316
	c-2.226,0-4.016-0.872-4.561-2.553l1.593-0.633C314.851,73.278,316.072,73.911,317.622,73.911z M324.408,77.881h-1.31l1.44-5.738
	h1.964v0.044L324.408,77.881z M333.027,71.751l1.745-0.655c0.523,1.702,2.116,2.662,4.168,2.662c2.226,0,3.557-1.112,3.557-2.728
	c0-1.374-0.742-1.897-2.379-2.291l-3.12-0.72c-1.876-0.415-3.513-1.396-3.513-3.731c0-2.509,2.072-4.189,5.193-4.189
	c2.422,0,4.232,1.113,5.084,2.858l-1.658,0.567c-0.611-1.2-1.855-1.92-3.47-1.92c-1.964,0-3.316,1.069-3.316,2.641
	c0,1.309,0.829,1.854,2.203,2.182l3.012,0.72c2.029,0.48,3.688,1.462,3.688,3.797c0,2.662-2.16,4.342-5.434,4.342
	C336.016,75.285,333.725,73.998,333.027,71.751z M356.92,75.002h-2.466l-5.935-4.757h-0.328v4.757h-1.658v-15.71h1.658v9.316h0.371
	l5.39-4.363h2.27l-6.459,5.192L356.92,75.002z M360.584,60.993c0,0.633-0.502,1.113-1.156,1.113s-1.135-0.48-1.135-1.113
	c0-0.589,0.48-1.112,1.135-1.112S360.584,60.404,360.584,60.993z M360.279,75.002h-1.68V64.245h1.68V75.002z M365.298,75.002h-1.658
	v-15.71h1.658V75.002z M370.142,75.002h-1.658v-15.71h1.658V75.002z M377.147,73.911c1.549,0,2.574-0.721,2.574-1.833
	c0-0.895-0.676-1.31-1.768-1.549l-2.356-0.546c-1.789-0.393-2.793-1.266-2.793-2.749c0-1.942,1.615-3.252,4.081-3.252
	c2.138,0,3.6,0.961,4.189,2.379l-1.55,0.479c-0.371-0.916-1.331-1.505-2.684-1.505c-1.527,0-2.378,0.741-2.378,1.768
	c0,0.851,0.589,1.243,1.636,1.483l2.487,0.567c1.571,0.371,2.771,1.178,2.771,2.814c0,2.117-1.768,3.316-4.342,3.316
	c-2.226,0-4.016-0.872-4.561-2.553l1.593-0.633C374.375,73.278,375.597,73.911,377.147,73.911z M383.932,77.881h-1.31l1.44-5.738
	h1.964v0.044L383.932,77.881z M276.339,99.186h-1.724V84.567h1.724V99.186z M289.409,92.75v6.437h-1.658v-6.132
	c0-2.007-1.2-3.36-2.989-3.36c-2.247,0-3.731,1.528-3.731,4.321v5.171h-1.658V88.429h1.658v1.767
	c0.873-1.287,2.27-2.029,4.059-2.029C287.686,88.167,289.409,90.022,289.409,92.75z M302.764,83.475v15.711h-1.658v-1.68
	c-0.982,1.243-2.487,1.963-4.277,1.963c-2.858,0-5.367-2.247-5.367-5.651c0-3.403,2.509-5.651,5.367-5.651
	c1.79,0,3.295,0.721,4.277,1.964v-6.655H302.764z M301.106,94.146v-0.655c-0.175-2.378-2.073-3.862-4.016-3.862
	c-2.226,0-4.015,1.615-4.015,4.189c0,2.554,1.789,4.168,4.015,4.168C299.032,97.986,300.931,96.503,301.106,94.146z M315.637,88.429
	v10.735h-1.681v-1.746c-0.873,1.287-2.27,2.029-4.059,2.029c-2.597,0-4.32-1.854-4.32-4.582v-6.437h1.681v6.131
	c0,2.008,1.178,3.339,2.967,3.339c2.248,0,3.731-1.506,3.731-4.299v-5.171H315.637z M322.488,98.095
	c1.549,0,2.574-0.721,2.574-1.833c0-0.895-0.676-1.31-1.768-1.549l-2.356-0.546c-1.789-0.393-2.793-1.266-2.793-2.749
	c0-1.942,1.615-3.252,4.081-3.252c2.138,0,3.6,0.961,4.189,2.379l-1.55,0.479c-0.371-0.916-1.331-1.505-2.684-1.505
	c-1.527,0-2.378,0.741-2.378,1.768c0,0.851,0.589,1.243,1.636,1.483l2.487,0.567c1.571,0.371,2.771,1.178,2.771,2.814
	c0,2.117-1.768,3.316-4.342,3.316c-2.226,0-4.016-0.872-4.561-2.553l1.593-0.633C319.717,97.463,320.939,98.095,322.488,98.095z
	 M335.863,98.619c-0.873,0.611-1.614,0.851-2.487,0.851c-2.139,0-3.557-1.265-3.557-3.644v-6h-2.335v-1.396h2.335v-3.426h1.68v3.426
	h3.841v1.396h-3.841v5.891c0,1.396,0.786,2.183,1.986,2.183c0.61,0,1.287-0.262,1.832-0.655L335.863,98.619z M344.308,88.407
	L344.177,90c-0.196-0.021-0.437-0.021-0.633-0.021c-2.858,0-4.32,2.16-4.32,5.062v4.146h-1.681V88.429h1.681v2.661
	c0.872-1.593,2.312-2.771,4.32-2.771C343.806,88.32,344.002,88.32,344.308,88.407z M356.767,88.429l-7.353,14.466h-1.855
	l2.531-4.975l-4.822-9.491h1.877l3.905,7.593l3.862-7.593H356.767z M284.827,112.615v10.757h-1.658v-1.68
	c-0.981,1.243-2.487,1.963-4.276,1.963c-2.858,0-5.368-2.247-5.368-5.651c0-3.403,2.51-5.651,5.368-5.651
	c1.789,0,3.295,0.721,4.276,1.964v-1.701H284.827z M283.169,118.332v-0.655c-0.175-2.378-2.073-3.862-4.015-3.862
	c-2.226,0-4.016,1.615-4.016,4.189c0,2.554,1.79,4.168,4.016,4.168C281.096,122.171,282.994,120.688,283.169,118.332z
	 M297.81,116.935v6.437h-1.658v-6.132c0-2.007-1.2-3.36-2.989-3.36c-2.247,0-3.731,1.528-3.731,4.321v5.171h-1.658v-10.757h1.658
	v1.767c0.873-1.287,2.27-2.029,4.059-2.029C296.086,112.352,297.81,114.208,297.81,116.935z M310.945,107.661v15.711h-1.658v-1.68
	c-0.982,1.243-2.487,1.963-4.277,1.963c-2.858,0-5.367-2.247-5.367-5.651c0-3.403,2.509-5.651,5.367-5.651
	c1.79,0,3.295,0.721,4.277,1.964v-6.655H310.945z M309.287,118.332v-0.655c-0.175-2.378-2.073-3.862-4.016-3.862
	c-2.226,0-4.015,1.615-4.015,4.189c0,2.554,1.789,4.168,4.015,4.168C307.214,122.171,309.112,120.688,309.287,118.332z
	 M332.001,123.372h-2.203l-4.518-5.499h-3.491v5.499h-1.724v-14.619h6.372c3.076,0,5.171,1.811,5.171,4.561
	c0,2.487-1.724,4.211-4.342,4.517L332.001,123.372z M321.789,116.302h4.648c2.051,0,3.447-1.2,3.447-2.989
	c0-1.812-1.396-3.012-3.447-3.012h-4.648V116.302z M344.155,118.332h-9.23c0.153,2.422,2.008,3.861,3.928,3.861
	c1.353,0,2.618-0.458,3.447-1.658l1.331,0.677c-0.981,1.614-2.684,2.443-4.778,2.443c-2.902,0-5.542-2.203-5.542-5.629
	c0-3.448,2.597-5.674,5.563-5.674c2.902,0,5.172,2.183,5.281,5.368V118.332z M334.99,117.088h7.484
	c-0.306-2.116-1.789-3.273-3.601-3.273C337.129,113.814,335.318,114.993,334.99,117.088z M356.899,122.499
	c-0.022,3.143-2.379,5.019-5.63,5.019c-2.029,0-3.709-0.676-4.67-1.854l1.113-1.222c0.785,0.96,1.964,1.571,3.535,1.571
	c2.312,0,4.015-1.44,4.015-3.731v-1.31c-0.873,1.135-2.248,1.768-4.037,1.768c-2.836,0-5.302-2.16-5.302-5.215
	c0-3.033,2.466-5.172,5.302-5.172c1.789,0,3.164,0.655,4.037,1.768v-1.505h1.614L356.899,122.499z M355.262,117.524
	c0-2.291-1.789-3.731-3.797-3.731c-2.182,0-3.928,1.44-3.928,3.731s1.746,3.774,3.928,3.774
	C353.473,121.298,355.262,119.815,355.262,117.524z M362.222,109.363c0,0.633-0.502,1.113-1.156,1.113s-1.135-0.48-1.135-1.113
	c0-0.589,0.48-1.112,1.135-1.112S362.222,108.774,362.222,109.363z M361.916,123.372h-1.68v-10.757h1.68V123.372z M375.969,117.982
	c0,3.295-2.531,5.651-5.695,5.651c-3.208,0-5.717-2.356-5.717-5.651s2.509-5.607,5.717-5.607
	C373.438,112.375,375.969,114.687,375.969,117.982z M374.332,117.982c0-2.466-1.855-4.146-4.059-4.146
	c-2.226,0-4.103,1.68-4.103,4.146c0,2.487,1.877,4.189,4.103,4.189C372.478,122.171,374.332,120.469,374.332,117.982z
	 M388.34,116.935v6.437h-1.658v-6.132c0-2.007-1.2-3.36-2.989-3.36c-2.247,0-3.731,1.528-3.731,4.321v5.171h-1.658v-10.757h1.658
	v1.767c0.873-1.287,2.27-2.029,4.059-2.029C386.616,112.352,388.34,114.208,388.34,116.935z M394.995,122.281
	c1.549,0,2.574-0.721,2.574-1.833c0-0.895-0.676-1.31-1.767-1.549l-2.357-0.546c-1.789-0.393-2.793-1.266-2.793-2.749
	c0-1.942,1.615-3.252,4.081-3.252c2.138,0,3.6,0.961,4.189,2.379l-1.55,0.479c-0.371-0.916-1.331-1.505-2.684-1.505
	c-1.527,0-2.379,0.741-2.379,1.768c0,0.851,0.59,1.243,1.637,1.483l2.487,0.567c1.571,0.371,2.771,1.178,2.771,2.814
	c0,2.117-1.768,3.316-4.342,3.316c-2.226,0-4.016-0.872-4.561-2.553l1.593-0.633C392.224,121.648,393.445,122.281,394.995,122.281z"
	/>
</svg>
